<?xml version="1.0" standalone="no"?><!DOCTYPE svg PUBLIC "-//W3C//DTD SVG 1.1//EN" "http://www.w3.org/Graphics/SVG/1.1/DTD/svg11.dtd"><svg t="1690654397293" class="icon" viewBox="0 0 1024 1024" version="1.1" xmlns="http://www.w3.org/2000/svg" p-id="25837" xmlns:xlink="http://www.w3.org/1999/xlink" width="255" height="255"><path d="M956.5184 792.576a67.5328 67.5328 0 0 0-59.4944 35.1232H504.7808a234.24 234.24 0 0 0 1.5872-105.0624 254.208 254.208 0 0 0-51.8144-104.8576A358.4 358.4 0 0 0 385.792 552.96l289.6384-324.1984a67.9936 67.9936 0 1 0-47.9744-44.8512L82.5856 793.9584a67.9424 67.9424 0 1 0-13.6192 134.5024 67.5328 67.5328 0 0 0 59.4944-35.1232h768.6144a67.9424 67.9424 0 1 0 59.4944-100.7616z m24.32 67.9424a24.32 24.32 0 1 1-24.32-24.32 24.3712 24.3712 0 0 1 24.32 24.32z m-887.6032 0a24.32 24.32 0 1 1-24.32-24.32 24.3712 24.3712 0 0 1 24.3712 24.32z m599.04-721.92a24.32 24.32 0 1 1-24.32 24.32 24.3712 24.3712 0 0 1 24.1152-24.2176z m-328.192 438.8864a326.2976 326.2976 0 0 1 65.2288 60.6208c46.4384 57.7536 60.5696 121.4976 42.0352 189.44H140.4416z" fill="#2c2c2c" p-id="25838"></path></svg>