<?xml version="1.0" standalone="no"?><!DOCTYPE svg PUBLIC "-//W3C//DTD SVG 1.1//EN" "http://www.w3.org/Graphics/SVG/1.1/DTD/svg11.dtd"><svg t="1690654633576" class="icon" viewBox="0 0 1024 1024" version="1.1" xmlns="http://www.w3.org/2000/svg" p-id="30922" xmlns:xlink="http://www.w3.org/1999/xlink" width="255" height="255"><path d="M749.57 828.81L511.98 591.22l-237.6 237.6c-21.86 21.86-57.3 21.82-79.16-0.04-21.9-21.9-21.94-57.34-0.08-79.2l237.6-237.6-237.55-237.55c-21.86-21.86-21.86-57.34 0-79.2 21.9-21.9 57.34-21.86 79.2 0l237.55 237.55 237.6-237.6c21.9-21.9 57.34-21.86 79.24 0.04 21.86 21.86 21.9 57.3 0 79.2l-237.6 237.6 237.59 237.59c21.86 21.86 21.9 57.3 0 79.2-21.87 21.85-57.35 21.85-79.2 0z" fill="#2c2c2c" p-id="30923"></path></svg>