<?xml version="1.0" standalone="no"?><!DOCTYPE svg PUBLIC "-//W3C//DTD SVG 1.1//EN" "http://www.w3.org/Graphics/SVG/1.1/DTD/svg11.dtd"><svg t="1690571679776" class="icon" viewBox="0 0 1024 1024" version="1.1" xmlns="http://www.w3.org/2000/svg" p-id="4386" xmlns:xlink="http://www.w3.org/1999/xlink" width="200" height="200"><path d="M892 32H132C76 32 32 76 32 132v760c0 56 44 100 100 100h760c56 0 100-44 100-100V132c0-56-44-100-100-100z m-628 80h496v260c0 16-12 28-28 28H292c-16 0-28-12-28-28V112z m648 780c0 12-8 20-20 20H132c-12 0-20-8-20-20V132c0-12 8-20 20-20h68v260c0 52 40 92 92 92h440c52 0 92-40 92-92V112h68c12 0 20 8 20 20v760z" p-id="4387"></path><path d="M644 352c24 0 40-16 40-40V192c0-24-16-40-40-40s-40 16-40 40v120c0 24 16 40 40 40z" p-id="4388"></path></svg>