<?xml version="1.0" encoding="utf-8"?>
<!-- Generator: Adobe Illustrator 23.0.1, SVG Export Plug-In . SVG Version: 6.00 Build 0)  -->
<svg version="1.1" id="Layer_1" xmlns="http://www.w3.org/2000/svg" xmlns:xlink="http://www.w3.org/1999/xlink" x="0px" y="0px"
	 viewBox="0 0 2000 2000" style="enable-background:new 0 0 2000 2000;" xml:space="preserve">
<style type="text/css">
	.st0{fill:none;}
</style>
<rect x="750" y="750" class="st0" width="500" height="500"/>
<g>
	<g>
		<polygon points="609.38,1207.96 610.27,656.48 1252.72,656.48 1252.42,795.28 1230.27,795.21 1230.53,678.64 632.35,678.64 
			631.56,1185.81 1229.7,1185.81 1229.94,1046.74 1230.08,946.31 896.44,946.31 896.44,924.15 1252.27,924.15 1252.05,1077.92 
			1251.83,1207.96 		"/>
	</g>
	<g>
		<polygon points="745.52,1073.41 746,788.69 1388.5,788.69 1388.2,946.31 1366.09,946.31 1366.31,810.85 768.08,810.85 
			767.7,1051.25 1245.59,1051.25 1245.55,1073.41 		"/>
	</g>
	<g>
		<polygon points="745.33,1343.52 745.33,1201.41 767.48,1201.41 767.48,1321.36 1368.06,1321.36 1368.44,1073.41 1284.26,1073.41 
			1284.3,1051.25 1390.62,1051.25 1390.18,1343.52 		"/>
	</g>
</g>
</svg>
