<?xml version="1.0" encoding="UTF-8" standalone="no"?>
<!-- Created with Inkscape (http://www.inkscape.org/) -->

<svg
   width="90.225609mm"
   height="14.225559mm"
   viewBox="0 0 117.2933 18.493226"
   version="1.1"
   id="svg5"
   inkscape:version="1.1.2 (0a00cf5339, 2022-02-04)"
   sodipodi:docname="logo-traceflows-light.svg"
   inkscape:export-filename="/home/sia/logo-traceflows-light.png"
   inkscape:export-xdpi="299.47079"
   inkscape:export-ydpi="299.47079"
   xmlns:inkscape="http://www.inkscape.org/namespaces/inkscape"
   xmlns:sodipodi="http://sodipodi.sourceforge.net/DTD/sodipodi-0.dtd"
   xmlns="http://www.w3.org/2000/svg"
   xmlns:svg="http://www.w3.org/2000/svg">
  <sodipodi:namedview
     id="namedview7"
     pagecolor="#ffffff"
     bordercolor="#666666"
     borderopacity="1.0"
     inkscape:pageshadow="2"
     inkscape:pageopacity="0.0"
     inkscape:pagecheckerboard="0"
     inkscape:document-units="mm"
     showgrid="false"
     fit-margin-top="0"
     fit-margin-left="0"
     fit-margin-right="0"
     fit-margin-bottom="0"
     inkscape:zoom="1.718444"
     inkscape:cx="196.3986"
     inkscape:cy="13.966123"
     inkscape:window-width="2560"
     inkscape:window-height="1363"
     inkscape:window-x="0"
     inkscape:window-y="24"
     inkscape:window-maximized="1"
     inkscape:current-layer="layer1"
     scale-x="1.3"
     inkscape:snap-global="false"
     showguides="false" />
  <defs
     id="defs2" />
  <g
     inkscape:label="Layer 1"
     inkscape:groupmode="layer"
     id="layer1"
     transform="translate(-30.73625,-203.06673)">
    <rect
       style="fill:none;fill-opacity:1;stroke:none;stroke-width:0.405685"
       id="rect9534"
       width="117.2933"
       height="18.493227"
       x="30.73625"
       y="203.06673" />
    <path
       id="text5005-3"
       style="font-style:normal;font-weight:normal;font-size:13.7583px;line-height:1.25;font-family:sans-serif;fill:#d3602a;fill-opacity:1;stroke:none;stroke-width:0.118307"
       d="m 113.90328,207.44499 c -0.55494,0 -1.087,0.041 -1.5935,0.12696 a 0.02671119,0.02671119 0 0 1 0,6.8e-4 0.02671119,0.02671119 0 0 1 0,6.7e-4 0.02671119,0.02671119 0 0 1 0,6.7e-4 c -0.50697,0.0815 -0.98081,0.20929 -1.42554,0.38628 -0.44028,0.17248 -0.84309,0.39035 -1.20721,0.65433 -0.36081,0.2649 -0.67006,0.58197 -0.92573,0.94723 -0.25564,0.36098 -0.45295,0.77162 -0.59387,1.23072 -0.14158,0.45673 -0.21296,0.96395 -0.21296,1.52162 0,0.83816 0.15021,1.56752 0.45682,2.18534 a 0.02671119,0.02671119 0 0 1 6.7e-4,6.7e-4 0.02671119,0.02671119 0 0 1 0,6.7e-4 0.02671119,0.02671119 0 0 1 -6.7e-4,6.7e-4 0.02671119,0.02671119 0 0 1 0.002,0 0.02671119,0.02671119 0 0 1 0,6.8e-4 0.02671119,0.02671119 0 0 1 0,0.002 0.02671119,0.02671119 0 0 1 0,0.001 0.02671119,0.02671119 0 0 1 0.002,0.005 c 0.30507,0.60664 0.7282,1.10887 1.26365,1.50818 0.53742,0.39623 1.16933,0.69039 1.89445,0.88072 0.72402,0.19006 1.50528,0.2835 2.33986,0.2835 0.8301,0 1.60487,-0.0934 2.32441,-0.2835 0.72067,-0.19036 1.35,-0.48436 1.88303,-0.88072 0.53098,-0.39936 0.95066,-0.90175 1.25559,-1.50818 a 0.02671119,0.02671119 0 0 1 0.004,-0.0114 c 0.30661,-0.61782 0.45682,-1.3472 0.45682,-2.18534 0,-0.83747 -0.15063,-1.56486 -0.45682,-2.17796 a 0.02671119,0.02671119 0 0 1 0,-0.002 l -0.002,-0.004 c -9.1e-4,-0.002 -0.001,-0.004 -0.002,-0.005 -0.30485,-0.61022 -0.72465,-1.11541 -1.25559,-1.51019 -0.53313,-0.40099 -1.16226,-0.69639 -1.88303,-0.88677 -0.71954,-0.19007 -1.49431,-0.28282 -2.32441,-0.28282 z m 29.49846,0 c -0.32951,0 -0.66402,0.0154 -1.00232,0.047 -0.33911,0.0316 -0.66693,0.0834 -0.98417,0.15586 a 0.02671119,0.02671119 0 0 1 -0.004,0 c -0.31222,0.0682 -0.6054,0.16409 -0.88274,0.28685 a 0.02671119,0.02671119 0 0 1 -0.002,0 c -0.27999,0.11934 -0.52371,0.26721 -0.73628,0.44742 v 0.002 a 0.02671119,0.02671119 0 0 1 -0.002,0 c -0.20969,0.18173 -0.37479,0.39902 -0.49578,0.6503 -0.12239,0.2495 -0.1834,0.53461 -0.1834,0.85385 0,0.32569 0.075,0.61653 0.22639,0.86729 a 0.02671119,0.02671119 0 0 1 0,6.7e-4 0.02671119,0.02671119 0 0 1 0,6.7e-4 0.02671119,0.02671119 0 0 1 0,6.7e-4 0.02671119,0.02671119 0 0 1 0.002,0.003 0.02671119,0.02671119 0 0 1 0.002,0.004 c 0.15294,0.24344 0.35627,0.4598 0.6073,0.64694 a 0.02671119,0.02671119 0 0 1 0.002,0.001 c 4.3e-4,3.2e-4 0.002,-3.1e-4 0.002,0 l 0.001,0.002 c 0.25539,0.18194 0.54914,0.34133 0.88341,0.47697 a 0.02671119,0.02671119 0 0 1 0.003,0 c 0.3388,0.13552 0.69697,0.25668 1.07085,0.36478 0.37287,0.10784 0.7547,0.20863 1.15011,0.30298 a 0.02671119,0.02671119 0 0 1 0.002,0.002 c 0.002,4.7e-4 0.004,0.002 0.006,0.002 a 0.02671119,0.02671119 0 0 1 0.005,0.002 c 0.39056,0.0879 0.76888,0.17695 1.13332,0.27342 h 0.002 c 0.002,5.1e-4 0.003,0.002 0.005,0.002 0.36693,0.0928 0.71206,0.196 1.03926,0.30634 h 0.002 c 0.002,6.4e-4 0.004,0.001 0.006,0.002 a 0.02671119,0.02671119 0 0 1 0.002,0 c 0.33155,0.11053 0.61714,0.23687 0.85721,0.3809 a 0.02671119,0.02671119 0 0 1 0.006,0.004 c 0.24122,0.1384 0.42748,0.29918 0.5623,0.48033 0.13732,0.17894 0.20691,0.38332 0.20691,0.62275 0,0.30234 -0.0867,0.5518 -0.25797,0.75644 h 0.002 c -0.1691,0.20717 -0.41233,0.38026 -0.73024,0.51526 a 0.02671119,0.02671119 0 0 1 -0.004,0 c -0.31815,0.13029 -0.69766,0.22713 -1.13869,0.28888 -0.44379,0.0621 -0.92798,0.0941 -1.45309,0.0941 -0.743,0 -1.45152,-0.0696 -2.1269,-0.20288 -0.66731,-0.13258 -1.30099,-0.37466 -1.90252,-0.73293 -0.0242,-0.0145 -0.0554,-0.0159 -0.0799,-0.002 -0.0246,0.0139 -0.0409,0.0423 -0.041,0.0705 v 1.02718 c -7e-5,0.0333 0.0209,0.0657 0.0524,0.0766 0.5952,0.2029 1.21848,0.36321 1.87162,0.48033 0.65955,0.11744 1.39327,0.174 2.19878,0.174 0.35108,0 0.70891,-0.0156 1.06882,-0.047 0.36602,-0.0271 0.71623,-0.074 1.05606,-0.14645 0.3447,-0.0726 0.67026,-0.17199 0.97075,-0.29492 0.30666,-0.12816 0.57316,-0.28763 0.79943,-0.47697 0.23182,-0.19472 0.41557,-0.42465 0.5502,-0.68926 0.13617,-0.27236 0.20355,-0.58822 0.20355,-0.9432 0,-0.32953 -0.077,-0.62572 -0.23244,-0.88072 a 0.02671119,0.02671119 0 0 1 0,-0.002 c -4.5e-4,-7.8e-4 -0.002,-0.001 -0.002,-0.002 -0.1489,-0.25014 -0.35227,-0.47296 -0.60931,-0.66575 -0.25211,-0.19251 -0.54845,-0.3576 -0.88879,-0.49847 a 0.02671119,0.02671119 0 0 1 -0.002,-0.002 l -0.004,-0.002 c -0.001,-5.6e-4 -0.003,-0.001 -0.004,-0.002 -0.33057,-0.14244 -0.68449,-0.26954 -1.05807,-0.3809 a 0.02671119,0.02671119 0 0 1 -0.004,0 c -0.37337,-0.11695 -0.75806,-0.2249 -1.15817,-0.32381 l -1.15078,-0.28685 h -0.002 a 0.02671119,0.02671119 0 0 1 -0.005,-0.002 c -0.36711,-0.0973 -0.71371,-0.19901 -1.04531,-0.30499 a 0.02671119,0.02671119 0 0 1 -0.007,-0.002 c -0.32723,-0.11063 -0.61438,-0.23191 -0.8599,-0.36344 a 0.02671119,0.02671119 0 0 1 -0.001,0 c -0.23954,-0.13066 -0.42698,-0.27794 -0.567,-0.44338 a 0.02671119,0.02671119 0 0 1 -0.001,0 c -0.13205,-0.16095 -0.19549,-0.34418 -0.19549,-0.56028 0,-0.26177 0.0705,-0.48095 0.21094,-0.66776 a 0.02671119,0.02671119 0 0 1 0.002,-0.002 v -0.002 l 0.002,-0.002 c 0.14691,-0.18679 0.35704,-0.34436 0.63618,-0.46891 a 0.02671119,0.02671119 0 0 1 0.0121,-0.004 h 0.002 c 0.28468,-0.12787 0.63028,-0.22575 1.04061,-0.28686 0.42059,-0.062 0.90084,-0.092 1.43965,-0.092 0.44318,0 0.84559,0.0259 1.20721,0.0786 h 0.002 c 6.2e-4,9e-5 0.001,-9e-5 0.002,0 a 0.02671119,0.02671119 0 0 1 0.001,0 c 0.36475,0.0489 0.68977,0.11236 0.97679,0.18743 0.29231,0.0753 0.54945,0.1594 0.77323,0.25595 a 0.02671119,0.02671119 0 0 1 0.002,0.002 c 0.002,8.7e-4 0.004,4.8e-4 0.006,0.001 a 0.02671119,0.02671119 0 0 1 0.002,0.002 c 0.22334,0.0921 0.42322,0.18087 0.59386,0.26401 0.0243,0.0119 0.0549,0.0103 0.0779,-0.004 0.023,-0.0143 0.0368,-0.0414 0.0369,-0.0685 v -0.96672 c -5e-5,-0.0352 -0.0244,-0.069 -0.0584,-0.0779 -0.29146,-0.0762 -0.58168,-0.14957 -0.8693,-0.21699 -0.28367,-0.0675 -0.57568,-0.12654 -0.87669,-0.17601 a 0.02671119,0.02671119 0 0 1 -0.002,0 c -0.29759,-0.054 -0.61013,-0.0948 -0.93379,-0.1263 -0.32091,-0.0316 -0.66048,-0.047 -1.02113,-0.047 z m -51.197391,0.16794 c -0.81958,0 -1.523185,0.0681 -2.109431,0.20893 -0.580863,0.13614 -1.059722,0.33596 -1.437639,0.60327 -0.373914,0.26021 -0.653283,0.58555 -0.829665,0.97074 a 0.02671119,0.02671119 0 0 1 0,6.7e-4 0.02671119,0.02671119 0 0 1 0,6.8e-4 0.02671119,0.02671119 0 0 1 0,6.7e-4 0.02671119,0.02671119 0 0 1 -0.002,0.006 0.02671119,0.02671119 0 0 1 0,6.7e-4 0.02671119,0.02671119 0 0 1 0,0.002 0.02671119,0.02671119 0 0 1 0,10e-4 c -0.170751,0.38764 -0.255953,0.82262 -0.255953,1.30664 v 6.20871 c -1.03e-4,0.0422 0.03769,0.08 0.07994,0.0799 h 0.839743 c 0.04225,9e-5 0.08005,-0.0377 0.07994,-0.0799 v -4.14631 a 0.02671119,0.02671119 0 0 1 0.02754,-0.0275 h 7.779371 c 0.04225,1.1e-4 0.08005,-0.0377 0.07994,-0.08 v -0.78532 c 1.03e-4,-0.0423 -0.03769,-0.08 -0.07994,-0.0799 h -7.779371 a 0.02671119,0.02671119 0 0 1 -0.02754,-0.0275 v -0.91968 c 0,-0.40668 0.07558,-0.75266 0.221021,-1.03927 0.145136,-0.28601 0.363925,-0.52103 0.665748,-0.70673 0.306684,-0.18574 0.703447,-0.32418 1.183698,-0.41248 0.48137,-0.0927 1.059973,-0.1404 1.732556,-0.1404 h 4.13892 c 0.04225,1e-4 0.08005,-0.0377 0.07995,-0.0799 v -0.78532 c 1.03e-4,-0.0423 -0.03769,-0.08 -0.07995,-0.08 z m 6.69711,0 c -0.04225,-1e-4 -0.08005,0.0377 -0.07994,0.08 v 6.19931 c 0,0.52975 0.05517,0.98824 0.169964,1.37852 0.115773,0.39361 0.324139,0.72621 0.617379,0.98686 a 0.02671119,0.02671119 0 0 1 0,6.7e-4 0.02671119,0.02671119 0 0 1 0,6.8e-4 0.02671119,0.02671119 0 0 1 0,6.7e-4 0.02671119,0.02671119 0 0 1 0.004,0.001 c 10e-4,0.001 0.002,0.003 0.003,0.004 0.29758,0.25326 0.690098,0.43878 1.174288,0.56094 0.49267,0.11861 1.11021,0.17736 1.85348,0.17736 h 4.33979 c 0.0423,1.1e-4 0.08,-0.0377 0.0799,-0.0799 v -0.81421 c 1.1e-4,-0.0423 -0.0377,-0.0807 -0.0799,-0.0806 h -4.17184 c -0.66526,0 -1.19847,-0.0436 -1.59618,-0.13033 a 0.02671119,0.02671119 0 0 1 -0.005,0 c -0.39424,-0.092 -0.6895,-0.23419 -0.8908,-0.41449 -0.20245,-0.18138 -0.332348,-0.40942 -0.396348,-0.69531 -0.0655,-0.29244 -0.10145,-0.6446 -0.10145,-1.05673 v -6.03875 c 1.1e-4,-0.0423 -0.0384,-0.08 -0.0806,-0.08 z m 22.263911,0 c -0.0261,2e-5 -0.0518,0.0134 -0.0665,0.0349 -0.0147,0.0216 -0.0176,0.0503 -0.008,0.0746 l 3.71502,9.23044 c 0.0116,0.0299 0.0425,0.0503 0.0746,0.0504 h 1.24953 c 0.0321,-9e-5 0.0629,-0.0204 0.0746,-0.0504 l 3.13056,-8.08235 a 0.02671119,0.02671119 0 0 1 0.0511,0 l 3.13862,8.08235 c 0.0116,0.0299 0.0418,0.0503 0.0739,0.0504 h 1.25021 c 0.0321,-9e-5 0.0629,-0.0204 0.0746,-0.0504 l 3.71435,-9.23044 c 0.01,-0.0243 0.007,-0.053 -0.007,-0.0746 -0.0147,-0.0216 -0.0404,-0.0349 -0.0665,-0.0349 h -0.9344 c -0.0321,9e-5 -0.0623,0.0205 -0.0739,0.0504 l -3.31261,8.30471 a 0.02671119,0.02671119 0 0 1 -0.0511,0 l -3.19303,-8.30471 c -0.0116,-0.0299 -0.0425,-0.0503 -0.0746,-0.0504 h -1.12861 c -0.0321,9e-5 -0.063,0.0205 -0.0746,0.0504 l -3.187,8.30471 a 0.02671119,0.02671119 0 0 1 -0.0511,0 l -3.3106,-8.30471 c -0.0116,-0.0299 -0.0418,-0.0503 -0.0739,-0.0504 z m -7.26209,0.73629 c 0.81367,0 1.52597,0.0909 2.13496,0.26737 0.61372,0.1722 1.12317,0.42526 1.52967,0.76182 0.40365,0.32986 0.70399,0.73914 0.90962,1.22468 l 0.002,0.002 c 0.001,0.003 0.003,0.005 0.004,0.007 a 0.02671119,0.02671119 0 0 1 0.002,0.002 c 0.21,0.49 0.31441,1.05458 0.31441,1.69964 0,0.64501 -0.10441,1.20896 -0.31441,1.69896 a 0.02671119,0.02671119 0 0 1 -0.002,0.002 c -0.001,0.003 -0.003,0.005 -0.004,0.008 l -0.002,0.002 c -0.20567,0.48568 -0.50583,0.89774 -0.90962,1.23206 -0.40668,0.33235 -0.91561,0.58511 -1.52967,0.76182 -0.60908,0.17214 -1.32108,0.25996 -2.13496,0.25998 -0.81391,0 -1.53013,-0.0877 -2.1484,-0.25998 -0.61314,-0.17644 -1.12617,-0.43012 -1.53706,-0.76182 a 0.02671119,0.02671119 0 0 1 -0.002,-0.002 l -0.002,-0.002 c -0.40906,-0.33622 -0.71765,-0.75146 -0.92708,-1.24013 -0.21,-0.49 -0.31508,-1.05395 -0.31506,-1.69896 0,-0.63284 0.10509,-1.19177 0.31305,-1.68016 a 0.02671119,0.02671119 0 0 1 0.002,-0.009 c 0.20978,-0.49386 0.51722,-0.90413 0.92708,-1.2361 l 0.002,-0.002 a 0.02671119,0.02671119 0 0 1 0.002,-0.002 c 0.41115,-0.33679 0.92304,-0.59115 1.53706,-0.76786 0.61818,-0.17662 1.3347,-0.26739 2.1484,-0.26737 z"
       inkscape:export-filename="/home/sia/work/github/traceflows/docs/source/_static/images/icons/logo-traceflows-light.png"
       inkscape:export-xdpi="299.47079"
       inkscape:export-ydpi="299.47079" />
    <path
       id="text5005-3-6"
       style="font-style:normal;font-weight:normal;font-size:13.7583px;line-height:1.25;font-family:sans-serif;fill:#00809a;fill-opacity:1;stroke:none;stroke-width:0.343958"
       d="m 48.038799,207.41013 c -0.463201,0 -0.913257,0.0548 -1.349634,0.16392 -0.430758,0.10428 -0.843216,0.25074 -1.238115,0.44137 -0.3936,0.18567 -0.770181,0.41165 -1.12727,0.67381 a 0.02671119,0.02671119 0 0 1 -0.002,0 c -7.39e-4,5.5e-4 -0.0013,0.001 -0.002,0.002 -0.285661,0.21268 -0.542309,0.45464 -0.796747,0.70136 a 0.02671119,0.02671119 0 0 1 -0.04703,-0.0195 v -1.64656 c 1.04e-4,-0.0422 -0.03769,-0.08 -0.07994,-0.0799 h -0.839742 c -0.04225,-10e-5 -0.08005,0.0377 -0.07994,0.0799 v 9.23044 c -1.03e-4,0.0423 0.03769,0.08 0.07994,0.08 h 0.839742 c 0.04225,1e-4 0.08005,-0.0377 0.07994,-0.08 v -6.36726 a 0.02671119,0.02671119 0 0 1 0.0081,-0.0175 c 0.250388,-0.29908 0.52665,-0.58147 0.835711,-0.84781 a 0.02671119,0.02671119 0 0 1 0.002,-0.004 c 0.318184,-0.27842 0.663777,-0.52038 1.035234,-0.72822 0.37507,-0.20739 0.778258,-0.37112 1.211244,-0.49041 0.435652,-0.12321 0.901017,-0.1854 1.395987,-0.18541 0.356298,0 0.644,0.0252 0.863255,0.0719 0.0017,3.7e-4 0.0043,0.002 0.006,0.002 a 0.02671119,0.02671119 0 0 1 0.004,0 c 0.231343,0.0445 0.410654,0.0849 0.53542,0.12361 0.02385,0.007 0.04973,0.003 0.06987,-0.0121 0.02013,-0.0147 0.03339,-0.0395 0.03359,-0.0645 v -0.82631 c 2.1e-5,-0.0373 -0.02781,-0.0732 -0.06449,-0.0799 -0.09947,-0.0181 -0.197774,-0.0314 -0.292902,-0.045 -0.09448,-0.0135 -0.194783,-0.0259 -0.300964,-0.0349 a 0.02671119,0.02671119 0 0 1 -0.004,0.002 c -0.104184,-0.0136 -0.218937,-0.0249 -0.343958,-0.0296 h -0.0034 a 0.02671119,0.02671119 0 0 1 -0.002,0 c -0.126821,-0.009 -0.268978,-0.0134 -0.425917,-0.0134 z m 7.316504,0.0685 c -0.79691,0 -1.555206,0.0611 -2.267975,0.18743 -0.704528,0.12123 -1.36733,0.26504 -1.991868,0.43129 a 0.02671119,0.02671119 0 0 1 -0.002,0 c -0.03409,0.009 -0.05839,0.0434 -0.05845,0.0786 v 0.98015 c 1.7e-5,0.0261 0.01336,0.0518 0.03493,0.0665 0.02158,0.0147 0.04963,0.0176 0.0739,0.008 0.299032,-0.11606 0.597941,-0.22374 0.892814,-0.3265 0.292972,-0.1021 0.59855,-0.19187 0.918342,-0.26737 0.318645,-0.0797 0.664312,-0.14298 1.033218,-0.18743 0.368093,-0.0443 0.776523,-0.0665 1.226024,-0.0665 0.332784,0 0.662014,0.016 0.990223,0.047 h 0.002 a 0.02671119,0.02671119 0 0 1 0.002,0 c 0.332253,0.0266 0.644875,0.0761 0.941183,0.14242 0.300211,0.0662 0.577897,0.14963 0.832352,0.25931 a 0.02671119,0.02671119 0 0 1 0.002,0.002 c 0.0019,8.1e-4 0.0041,0.001 0.006,0.002 a 0.02671119,0.02671119 0 0 1 0.002,0.002 l 0.0013,0.002 c 0.247207,0.10348 0.462341,0.23427 0.644922,0.39099 6.9e-4,5.8e-4 0.0013,7.5e-4 0.002,10e-4 a 0.02671119,0.02671119 0 0 1 0.002,0 c 0.184625,0.15458 0.326843,0.33434 0.429276,0.54348 0.101303,0.20683 0.152498,0.44747 0.152498,0.72419 v 0.60596 a 0.02671119,0.02671119 0 0 1 -0.02553,0.0269 c -0.826848,0.0485 -1.622195,0.10895 -2.37479,0.18206 -0.781061,0.0718 -1.507691,0.16394 -2.181986,0.28081 -0.674585,0.11244 -1.286931,0.25294 -1.837355,0.41987 a 0.02671119,0.02671119 0 0 1 -0.004,0 c -0.545416,0.1626 -1.014463,0.36463 -1.406064,0.60596 -0.392976,0.23785 -0.700765,0.5245 -0.918342,0.85318 -0.214879,0.32699 -0.320446,0.70596 -0.320446,1.13129 0,0.42787 0.09089,0.8089 0.277451,1.14004 0.184678,0.32319 0.447369,0.5985 0.785327,0.81891 a 0.02671119,0.02671119 0 0 1 0.0081,0.001 c 0.341074,0.21663 0.754407,0.38134 1.2361,0.49041 0.486305,0.10908 1.031628,0.16056 1.636489,0.16056 0.464475,0 0.93771,-0.0294 1.420172,-0.088 0.482261,-0.0586 0.95087,-0.14174 1.406064,-0.2499 0.459664,-0.10816 0.89392,-0.23601 1.304623,-0.38494 0.355624,-0.12756 0.663558,-0.26941 0.95529,-0.41786 a 0.02671119,0.02671119 0 0 1 0.03897,0.0235 v 0.85721 c -1.04e-4,0.0423 0.03769,0.08 0.07994,0.08 h 0.834368 c 0.04225,1e-4 0.08005,-0.0377 0.07994,-0.08 v -6.26179 c 0,-0.58036 -0.125336,-1.0791 -0.380907,-1.48802 -0.253444,-0.41012 -0.603269,-0.7416 -1.043295,-0.99828 -0.437004,-0.25492 -0.950851,-0.44138 -1.537064,-0.5549 -0.0021,-4.1e-4 -0.0033,-0.002 -0.0054,-0.002 a 0.02671119,0.02671119 0 0 1 -0.002,0 c -0.587607,-0.11737 -1.218797,-0.17332 -1.894458,-0.17332 z m 13.032796,0 c -0.555071,0 -1.088702,0.0418 -1.59551,0.13234 -0.506918,0.0905 -0.980149,0.22903 -1.420171,0.41047 -0.440445,0.18164 -0.83961,0.4088 -1.199152,0.68187 -0.360009,0.26887 -0.669618,0.58265 -0.929762,0.94319 a 0.02671119,0.02671119 0 0 1 -0.002,0 c -5.2e-4,7.5e-4 -8.23e-4,0.001 -0.0013,0.002 -0.255208,0.36055 -0.45101,0.76885 -0.59185,1.21863 a 0.02671119,0.02671119 0 0 1 -0.002,0 c -1.81e-4,6e-4 1.81e-4,0.001 0,0.002 -0.13656,0.45138 -0.203555,0.94402 -0.203553,1.47862 0,0.53456 0.06699,1.02656 0.203553,1.47794 1.81e-4,6e-4 -1.81e-4,0.001 0,0.002 a 0.02671119,0.02671119 0 0 1 0.002,0 c 0.14084,0.44978 0.336642,0.85875 0.59185,1.21931 5.2e-4,7.4e-4 8.23e-4,6e-4 0.0013,0.001 a 0.02671119,0.02671119 0 0 1 0.002,0 c 0.259998,0.36034 0.569905,0.67795 0.929762,0.95126 0.359519,0.26849 0.75904,0.49231 1.199152,0.67381 0.440023,0.18144 0.913252,0.31994 1.420171,0.41046 0.511162,0.0905 1.044885,0.13302 1.59551,0.13302 0.445949,0 0.85673,-0.0233 1.236772,-0.0685 0.378947,-0.0451 0.74199,-0.10604 1.085619,-0.18743 0.343204,-0.0813 0.669852,-0.1779 0.986193,-0.29088 0.319403,-0.11247 0.642861,-0.23657 0.966711,-0.3715 0.0294,-0.0121 0.04919,-0.0421 0.04904,-0.0739 v -1.00232 c 8.2e-5,-0.0289 -0.01557,-0.0561 -0.04098,-0.0699 -0.02541,-0.0137 -0.05781,-0.0145 -0.08196,0.001 -0.234236,0.15468 -0.496956,0.30545 -0.785326,0.44741 -0.282505,0.13683 -0.59357,0.25901 -0.935137,0.36546 a 0.02671119,0.02671119 0 0 1 -0.002,0 l -0.0081,0.002 c -0.333893,0.10498 -0.694369,0.18821 -1.082259,0.24991 v -0.002 c -0.385219,0.062 -0.793193,0.0961 -1.228039,0.0961 -0.876815,0 -1.6352,-0.0958 -2.27335,-0.27946 -0.0025,-7.2e-4 -0.0056,-0.001 -0.0081,-0.002 a 0.02671119,0.02671119 0 0 1 -0.002,0 c -0.64041,-0.19013 -1.166867,-0.45382 -1.582074,-0.79473 a 0.02671119,0.02671119 0 0 1 0,-0.002 c -0.411725,-0.34603 -0.716532,-0.76081 -0.917669,-1.24618 -0.1972,-0.48642 -0.296934,-1.03127 -0.296934,-1.64052 0,-0.60928 0.09973,-1.15477 0.296934,-1.64119 0.201154,-0.48979 0.506283,-0.90615 0.917669,-1.24753 0.415642,-0.34564 0.943086,-0.6127 1.58409,-0.80279 0.639684,-0.1897 1.400348,-0.28551 2.281411,-0.28551 0.435088,0 0.842308,0.0321 1.222664,0.0941 0.381813,0.0622 0.738649,0.14382 1.070167,0.24991 0.336754,0.10635 0.649919,0.23143 0.937153,0.37284 0.28862,0.14209 0.558005,0.29175 0.810854,0.45145 0.02411,0.0151 0.05701,0.0177 0.08196,0.004 0.02495,-0.0137 0.04073,-0.0421 0.04098,-0.0705 v -1.00769 c 1.5e-4,-0.0318 -0.01964,-0.0625 -0.04904,-0.0746 -0.324034,-0.13501 -0.644825,-0.25666 -0.964696,-0.36478 a 0.02671119,0.02671119 0 0 1 -0.002,0 c -0.316341,-0.11298 -0.642989,-0.2096 -0.986193,-0.29089 -0.343629,-0.0814 -0.706672,-0.14299 -1.085619,-0.1881 -0.380042,-0.0452 -0.790823,-0.0679 -1.236772,-0.0679 z m 11.541416,0.0665 c -0.813916,0 -1.55958,0.11714 -2.236404,0.35336 -0.675867,0.23587 -1.258412,0.56726 -1.74599,0.9956 -0.487503,0.42827 -0.871495,0.9425 -1.144735,1.53907 -0.269182,0.59768 -0.402407,1.25583 -0.402407,1.96903 0,0.73577 0.138636,1.40197 0.421889,1.9959 0.282568,0.59247 0.688425,1.09865 1.207211,1.51758 0.523993,0.41464 1.15625,0.73539 1.89446,0.95731 0.738692,0.22205 1.562964,0.33186 2.474213,0.33186 0.390892,0 0.749664,-0.014 1.074199,-0.041 0.329695,-0.0226 0.652585,-0.0607 0.968728,-0.11488 a 0.02671119,0.02671119 0 0 1 0,-0.002 c 0.315685,-0.0496 0.636381,-0.11222 0.961336,-0.19347 a 0.02671119,0.02671119 0 0 1 0.006,-0.002 h 0.002 c 0.322269,-0.0851 0.667699,-0.18695 1.042624,-0.30298 0.03255,-0.01 0.0561,-0.0419 0.05643,-0.0759 v -0.97477 c 2.68e-4,-0.0287 -0.01594,-0.0565 -0.04098,-0.0705 -0.02504,-0.014 -0.05765,-0.0132 -0.08196,0.002 -0.172543,0.10782 -0.398572,0.2167 -0.675826,0.32246 -0.278847,0.10182 -0.587491,0.19492 -0.92573,0.27947 -0.337612,0.08 -0.689574,0.14656 -1.058748,0.19549 -0.368445,0.0488 -0.732638,0.0719 -1.091665,0.0719 -0.841409,10e-6 -1.578976,-0.0856 -2.208856,-0.25193 -0.0025,-6.6e-4 -0.0056,-0.001 -0.0081,-0.002 a 0.02671119,0.02671119 0 0 1 -0.002,0 c -0.625777,-0.17208 -1.151494,-0.41612 -1.580059,-0.73024 a 0.02671119,0.02671119 0 0 1 -0.0034,-0.002 c -0.424744,-0.31553 -0.75136,-0.6989 -0.982837,-1.14876 -0.215352,-0.41852 -0.343009,-0.88767 -0.400388,-1.40204 a 0.02671119,0.02671119 0 0 1 0.02754,-0.0316 h 9.712792 c 0.04225,1e-4 0.08005,-0.0377 0.07994,-0.0799 v -0.20893 c 0,-0.75184 -0.118277,-1.42898 -0.355378,-2.03083 -0.236946,-0.60605 -0.583879,-1.12238 -1.040608,-1.54715 -0.456887,-0.4249 -1.017143,-0.75174 -1.680157,-0.9788 -0.663816,-0.22733 -1.418598,-0.33925 -2.26327,-0.33925 z m -48.416167,0.10144 c -0.04225,-1e-4 -0.08005,0.0377 -0.07994,0.0799 v 0.76585 c -1.04e-4,0.0422 0.03769,0.08 0.07994,0.0799 h 4.089879 a 0.02671119,0.02671119 0 0 1 0.02754,0.0269 v 8.35778 c -1.03e-4,0.0423 0.03769,0.08 0.07994,0.08 h 0.833696 c 0.04226,1e-4 0.08005,-0.0377 0.07994,-0.08 v -8.35778 a 0.02671119,0.02671119 0 0 1 0.02754,-0.0269 h 4.091895 c 0.04226,1.1e-4 0.08005,-0.0377 0.07994,-0.0799 v -0.76585 c 1.03e-4,-0.0422 -0.03769,-0.08 -0.07994,-0.0799 z m 48.402058,0.8048 c 0.759098,0 1.40821,0.0962 1.943498,0.28485 0.542471,0.18964 0.981702,0.44354 1.326121,0.76181 a 0.02671119,0.02671119 0 0 1 0,6.7e-4 0.02671119,0.02671119 0 0 1 0,6.7e-4 0.02671119,0.02671119 0 0 1 0,6.7e-4 0.02671119,0.02671119 0 0 1 0.0081,0.007 c 0.346122,0.31784 0.606092,0.68205 0.779279,1.0977 0.160773,0.38184 0.253356,0.78506 0.292904,1.20319 a 0.02671119,0.02671119 0 0 1 -0.02754,0.0296 H 75.47825 a 0.02671119,0.02671119 0 0 1 -0.02754,-0.0316 c 0.0645,-0.4195 0.186742,-0.82088 0.378891,-1.20117 0.209787,-0.41957 0.497783,-0.7856 0.865271,-1.10107 a 0.02671119,0.02671119 0 0 1 0.002,-0.004 c 0.367695,-0.31954 0.815766,-0.5741 1.349634,-0.76382 0.531319,-0.18883 1.155033,-0.28485 1.868929,-0.28485 z m -20.720802,3.58738 a 0.02671119,0.02671119 0 0 1 0.02956,0.0275 v 2.92767 a 0.02671119,0.02671119 0 0 1 -0.01142,0.0215 c -0.140628,0.10356 -0.306391,0.20862 -0.509891,0.31037 -0.21593,0.11017 -0.456551,0.21339 -0.72285,0.31104 -0.266515,0.0977 -0.55046,0.18884 -0.853178,0.27342 a 0.02671119,0.02671119 0 0 1 -0.002,0 c -0.302298,0.08 -0.609034,0.15067 -0.920358,0.21296 a 0.02671119,0.02671119 0 0 1 -0.002,0 c -0.311252,0.0577 -0.621978,0.10691 -0.937152,0.14242 a 0.02671119,0.02671119 0 0 1 -0.002,0 c -0.310262,0.031 -0.610036,0.047 -0.902219,0.047 -0.494257,0 -0.94088,-0.0394 -1.336198,-0.11353 -0.0019,-3.7e-4 -0.0041,-0.002 -0.006,-0.002 a 0.02671119,0.02671119 0 0 1 -0.0013,0 c -0.391086,-0.0784 -0.719275,-0.19133 -0.990224,-0.3359 a 0.02671119,0.02671119 0 0 1 -0.01411,-0.004 c -0.272513,-0.15164 -0.476922,-0.33313 -0.620738,-0.54886 a 0.02671119,0.02671119 0 0 1 0,-0.002 c -0.139178,-0.2151 -0.210942,-0.46043 -0.210943,-0.74233 0,-0.34 0.141284,-0.64082 0.433307,-0.91566 0.295582,-0.27372 0.768982,-0.52164 1.420172,-0.73427 0.651638,-0.21277 1.493688,-0.39411 2.525272,-0.54147 1.007097,-0.14326 2.223873,-0.25372 3.634404,-0.33388 z" />
  </g>
</svg>
