<?xml version="1.0" encoding="UTF-8" standalone="no"?>
<!-- Created with Inkscape (http://www.inkscape.org/) -->

<svg
   width="71.774429mm"
   height="12.637626mm"
   viewBox="0 0 93.30676 16.428913"
   version="1.1"
   id="svg5"
   inkscape:version="1.1.2 (0a00cf5339, 2022-02-04)"
   sodipodi:docname="logo-restoreio-dark.svg"
   inkscape:export-filename="/home/sia/logo-restoreio-dark.png"
   inkscape:export-xdpi="299.47079"
   inkscape:export-ydpi="299.47079"
   xmlns:inkscape="http://www.inkscape.org/namespaces/inkscape"
   xmlns:sodipodi="http://sodipodi.sourceforge.net/DTD/sodipodi-0.dtd"
   xmlns="http://www.w3.org/2000/svg"
   xmlns:svg="http://www.w3.org/2000/svg">
  <sodipodi:namedview
     id="namedview7"
     pagecolor="#ffffff"
     bordercolor="#666666"
     borderopacity="1.0"
     inkscape:pageshadow="2"
     inkscape:pageopacity="0.0"
     inkscape:pagecheckerboard="0"
     inkscape:document-units="mm"
     showgrid="false"
     fit-margin-top="0"
     fit-margin-left="0"
     fit-margin-right="0"
     fit-margin-bottom="0"
     inkscape:zoom="2.4302468"
     inkscape:cx="144.42978"
     inkscape:cy="36.210314"
     inkscape:window-width="1920"
     inkscape:window-height="1006"
     inkscape:window-x="0"
     inkscape:window-y="25"
     inkscape:window-maximized="1"
     inkscape:current-layer="layer1"
     scale-x="1.3"
     inkscape:snap-global="false" />
  <defs
     id="defs2" />
  <g
     inkscape:label="Layer 1"
     inkscape:groupmode="layer"
     id="layer1"
     transform="translate(-41.715004,-168.99693)">
    <rect
       style="fill:none;fill-opacity:1;stroke:none;stroke-width:0.341042"
       id="rect9534"
       width="93.306763"
       height="16.428913"
       x="41.715004"
       y="168.99693" />
    <path
       id="text1947-3"
       style="font-style:normal;font-weight:normal;font-size:13.7583px;line-height:1.25;font-family:sans-serif;fill:#e9e9e9;fill-opacity:1;stroke:none;stroke-width:0.343958"
       sodipodi:type="inkscape:offset"
       inkscape:radius="0.064036876"
       inkscape:original="M 67.742188 171.9668 C 67.415249 171.9668 67.083943 171.98232 66.748047 172.01367 C 66.412151 172.04502 66.088894 172.09631 65.775391 172.16797 C 65.466366 172.23515 65.173586 172.3283 64.900391 172.44922 C 64.627195 172.56566 64.387657 172.71205 64.181641 172.88672 C 63.980103 173.06138 63.821522 173.26987 63.705078 173.51172 C 63.588634 173.74909 63.53125 174.02105 63.53125 174.33008 C 63.53125 174.64358 63.602778 174.91888 63.746094 175.15625 C 63.893888 175.39362 64.089614 175.60544 64.335938 175.78906 C 64.58674 175.96821 64.87952 176.12541 65.210938 176.25977 C 65.546833 176.39412 65.899759 176.51361 66.271484 176.62109 C 66.643209 176.72858 67.025804 176.82978 67.419922 176.92383 C 67.818518 177.0134 68.204447 177.1085 68.576172 177.20703 C 68.947897 177.30108 69.299442 177.40366 69.630859 177.51562 C 69.966755 177.62759 70.257583 177.7565 70.503906 177.9043 C 70.754709 178.04761 70.952388 178.21562 71.095703 178.4082 C 71.243497 178.60078 71.316406 178.8248 71.316406 179.08008 C 71.316406 179.39806 71.224639 179.66727 71.041016 179.88672 C 70.861871 180.10617 70.610142 180.28499 70.283203 180.42383 C 69.956264 180.55819 69.567002 180.65605 69.119141 180.71875 C 68.671279 180.78145 68.184726 180.81445 67.65625 180.81445 C 66.908322 180.81445 66.192468 180.74569 65.511719 180.61133 C 64.835448 180.47697 64.193076 180.22996 63.583984 179.86719 L 63.583984 180.89453 C 64.175161 181.09607 64.795914 181.25465 65.445312 181.37109 C 66.09919 181.48754 66.827234 181.54688 67.628906 181.54688 C 67.978238 181.54687 68.331164 181.5294 68.689453 181.49805 C 69.052221 181.47118 69.402385 181.42322 69.738281 181.35156 C 70.078656 181.2799 70.395818 181.18342 70.691406 181.0625 C 70.991473 180.9371 71.251251 180.78323 71.470703 180.59961 C 71.694634 180.41151 71.872073 180.18887 72.001953 179.93359 C 72.131833 179.67383 72.197266 179.3722 72.197266 179.02734 C 72.197266 178.70936 72.122404 178.42935 71.974609 178.1875 C 71.831294 177.94565 71.635568 177.73107 71.384766 177.54297 C 71.138442 177.35487 70.845662 177.18962 70.509766 177.05078 C 70.178348 176.90747 69.825422 176.77993 69.449219 176.66797 C 69.077494 176.55152 68.691565 176.44423 68.292969 176.3457 L 67.138672 176.05664 C 66.766947 175.95811 66.412068 175.85553 66.076172 175.74805 C 65.744754 175.63608 65.453927 175.51326 65.203125 175.37891 C 64.956801 175.24455 64.761075 175.09068 64.613281 174.91602 C 64.469966 174.74135 64.396484 174.53758 64.396484 174.30469 C 64.396484 174.02701 64.472727 173.78748 64.625 173.58594 C 64.781751 173.3844 65.005765 173.21777 65.296875 173.08789 C 65.592463 172.95353 65.952057 172.85567 66.373047 172.79297 C 66.798515 172.73027 67.282307 172.69922 67.824219 172.69922 C 68.27208 172.69922 68.679629 172.72555 69.046875 172.7793 C 69.414121 172.82856 69.742093 172.89066 70.033203 172.9668 C 70.328792 173.04293 70.591903 173.12999 70.820312 173.22852 C 71.048722 173.32257 71.249162 173.41295 71.423828 173.49805 L 71.423828 172.53125 C 71.132718 172.45511 70.845225 172.38359 70.558594 172.31641 C 70.276441 172.24923 69.983661 172.18989 69.683594 172.14062 C 69.388005 172.08688 69.080273 172.04502 68.757812 172.01367 C 68.439831 171.98232 68.100477 171.9668 67.742188 171.9668 z M 89.509766 171.9668 C 88.958896 171.9668 88.431292 172.00866 87.929688 172.09375 C 87.428083 172.17437 86.958435 172.3019 86.519531 172.47656 C 86.085106 172.64675 85.688367 172.86133 85.330078 173.12109 C 84.976268 173.38085 84.67463 173.69054 84.423828 174.04883 C 84.173026 174.40264 83.978681 174.80547 83.839844 175.25781 C 83.701007 175.70567 83.630859 176.20499 83.630859 176.75586 C 83.630859 177.5844 83.780011 178.30164 84.080078 178.90625 C 84.380145 179.50638 84.795742 180.00237 85.324219 180.39648 C 85.852695 180.78612 86.474828 181.07557 87.191406 181.26367 C 87.907984 181.45177 88.681222 181.54688 89.509766 181.54688 C 90.33383 181.54688 91.1004 181.45177 91.8125 181.26367 C 92.5246 181.07557 93.143971 180.78612 93.667969 180.39648 C 94.191966 180.00237 94.60423 179.50638 94.904297 178.90625 C 95.204364 178.30164 95.353516 177.5844 95.353516 176.75586 C 95.353516 175.92732 95.204364 175.21342 94.904297 174.61328 C 94.60423 174.00867 94.191966 173.51073 93.667969 173.12109 C 93.143971 172.72698 92.5246 172.43615 91.8125 172.24805 C 91.1004 172.05995 90.33383 171.9668 89.509766 171.9668 z M 42.121094 172.13477 L 42.121094 181.36523 L 42.960938 181.36523 L 42.960938 177.41406 L 46.714844 177.41406 C 46.853681 177.41406 46.989261 177.41268 47.119141 177.4082 C 47.24902 177.40372 47.376552 177.39568 47.501953 177.38672 L 50.478516 181.36523 L 51.533203 181.36523 L 48.380859 177.29297 C 49.18701 177.1407 49.771998 176.8593 50.134766 176.44727 C 50.497533 176.03075 50.679688 175.47682 50.679688 174.78711 C 50.679688 174.34373 50.604825 173.95642 50.457031 173.625 C 50.309237 173.29358 50.074413 173.01828 49.751953 172.79883 C 49.433972 172.5749 49.025042 172.41022 48.523438 172.30273 C 48.021833 172.19077 47.417986 172.13477 46.714844 172.13477 L 42.121094 172.13477 z M 53.582031 172.13477 L 53.582031 181.36523 L 61.375 181.36523 L 61.375 180.57812 L 54.496094 180.57812 L 54.496094 176.87695 L 60.931641 176.87695 L 60.931641 176.09766 L 54.496094 176.09766 L 54.496094 172.91992 L 61.273438 172.91992 L 61.273438 172.13477 L 53.582031 172.13477 z M 73.507812 172.13477 L 73.507812 172.90039 L 77.705078 172.90039 L 77.705078 181.36523 L 78.539062 181.36523 L 78.539062 172.90039 L 82.736328 172.90039 L 82.736328 172.13477 L 73.507812 172.13477 z M 97.8125 172.13477 L 97.8125 181.36523 L 98.652344 181.36523 L 98.652344 177.41406 L 102.4082 177.41406 C 102.54704 177.41406 102.68067 177.41268 102.81055 177.4082 C 102.94043 177.40372 103.06796 177.39568 103.19336 177.38672 L 106.16992 181.36523 L 107.22461 181.36523 L 104.07422 177.29297 C 104.88037 177.1407 105.4634 176.8593 105.82617 176.44727 C 106.18894 176.03075 106.37109 175.47682 106.37109 174.78711 C 106.37109 174.34373 106.29623 173.95642 106.14844 173.625 C 106.00064 173.29358 105.76582 173.01828 105.44336 172.79883 C 105.12538 172.5749 104.71645 172.41022 104.21484 172.30273 C 103.71324 172.19077 103.11135 172.13477 102.4082 172.13477 L 97.8125 172.13477 z M 109.27344 172.13477 L 109.27344 181.36523 L 117.06641 181.36523 L 117.06641 180.57812 L 110.1875 180.57812 L 110.1875 176.87695 L 116.62305 176.87695 L 116.62305 176.09766 L 110.1875 176.09766 L 110.1875 172.91992 L 116.96484 172.91992 L 116.96484 172.13477 L 109.27344 172.13477 z M 89.509766 172.71094 C 90.329352 172.71094 91.047967 172.80132 91.666016 172.98047 C 92.288543 173.15513 92.808098 173.41491 93.224609 173.75977 C 93.64112 174.10014 93.953568 174.52183 94.164062 175.02344 C 94.379036 175.52504 94.486328 176.10198 94.486328 176.75586 C 94.486328 177.40974 94.379036 177.98863 94.164062 178.49023 C 93.953568 178.99184 93.64112 179.41491 93.224609 179.75977 C 92.808098 180.10014 92.288543 180.35992 91.666016 180.53906 C 91.047967 180.71373 90.329352 180.80078 89.509766 180.80078 C 88.690179 180.80078 87.96685 180.71373 87.339844 180.53906 C 86.717317 180.35992 86.194427 180.10014 85.773438 179.75977 C 85.352448 179.41491 85.035286 178.99184 84.820312 178.49023 C 84.605339 177.98863 84.498047 177.40974 84.498047 176.75586 C 84.498047 176.11094 84.605339 175.53871 84.820312 175.03711 C 85.035286 174.53103 85.352448 174.106 85.773438 173.76562 C 86.194427 173.42077 86.717317 173.15961 87.339844 172.98047 C 87.96685 172.80132 88.690179 172.71094 89.509766 172.71094 z M 42.960938 172.91992 L 45.822266 172.91992 C 46.561237 172.91992 47.18337 172.94488 47.689453 172.99414 C 48.200015 173.03893 48.612278 173.12931 48.925781 173.26367 C 49.239284 173.39803 49.464679 173.58766 49.603516 173.83398 C 49.742353 174.07583 49.8125 174.39299 49.8125 174.78711 C 49.8125 175.18571 49.740972 175.5062 49.597656 175.74805 C 49.458819 175.98541 49.230091 176.17228 48.912109 176.30664 C 48.594128 176.43652 48.180484 176.52357 47.669922 176.56836 C 47.15936 176.60867 46.533893 176.62891 45.794922 176.62891 L 42.960938 176.62891 L 42.960938 172.91992 z M 98.652344 172.91992 L 101.51367 172.91992 C 102.25264 172.91992 102.87478 172.94488 103.38086 172.99414 C 103.89142 173.03893 104.30368 173.12931 104.61719 173.26367 C 104.93069 173.39803 105.15804 173.58766 105.29688 173.83398 C 105.43571 174.07583 105.50391 174.39299 105.50391 174.78711 C 105.50391 175.18571 105.43238 175.5062 105.28906 175.74805 C 105.15023 175.98541 104.9215 176.17228 104.60352 176.30664 C 104.28553 176.43652 103.87189 176.52357 103.36133 176.56836 C 102.85077 176.60867 102.2253 176.62891 101.48633 176.62891 L 98.652344 176.62891 L 98.652344 172.91992 z "
       d="m 67.742188,171.90234 c -0.328966,0 -0.662172,0.0153 -1,0.0469 -0.338546,0.0316 -0.664115,0.0839 -0.980469,0.15625 -0.312828,0.068 -0.60917,0.16231 -0.886719,0.28515 -0.278585,0.11874 -0.523145,0.26818 -0.734375,0.44727 -0.208034,0.18029 -0.374079,0.39712 -0.494141,0.64649 h 0.002 c -0.121299,0.24726 -0.181641,0.52874 -0.181641,0.8457 0,0.32324 0.07484,0.61132 0.224609,0.85937 0.152168,0.2444 0.353257,0.46238 0.605469,0.65039 a 0.06404328,0.06404328 0 0 0 0.002,0.002 c 0.255565,0.18255 0.553306,0.3406 0.888672,0.47656 0.3381,0.13523 0.692905,0.25529 1.066406,0.36328 0.372686,0.10777 0.755286,0.2104 1.150391,0.30469 a 0.06404328,0.06404328 0 0 0 0.002,0 c 0.397763,0.0894 0.783318,0.18487 1.154297,0.2832 0.370298,0.0937 0.721136,0.19528 1.050781,0.30664 0.332428,0.11082 0.618034,0.238 0.859375,0.38281 a 0.06404328,0.06404328 0 0 0 0.002,0 c 0.244669,0.13981 0.435139,0.30402 0.572266,0.48829 0.139384,0.18162 0.207031,0.38972 0.207031,0.63281 0,0.30566 -0.08594,0.55789 -0.259765,0.76562 -0.171338,0.20989 -0.41476,0.3838 -0.734376,0.51953 -0.320197,0.13139 -0.705333,0.22899 -1.148437,0.29102 -0.444611,0.0622 -0.927315,0.0937 -1.453125,0.0937 -0.744003,0 -1.456359,-0.0677 -2.132812,-0.20117 -0.66916,-0.13295 -1.303185,-0.37715 -1.90625,-0.73633 a 0.06404328,0.06404328 0 0 0 -0.09766,0.0547 v 1.02734 a 0.06404328,0.06404328 0 0 0 0.04297,0.0606 c 0.594425,0.20265 1.218732,0.36154 1.871094,0.47851 0.658259,0.11723 1.39048,0.17774 2.195312,0.17774 0.350824,-1e-5 0.705261,-0.0174 1.064453,-0.0488 0.365339,-0.0271 0.719519,-0.0761 1.058594,-0.14844 0.343866,-0.0724 0.663493,-0.17049 0.962891,-0.29297 a 0.06404328,0.06404328 0 0 0 0.002,0 c 0.30513,-0.12751 0.569898,-0.28437 0.794922,-0.47265 0.230229,-0.19339 0.413129,-0.42267 0.546875,-0.68555 0.1349,-0.2698 0.203125,-0.58259 0.203125,-0.93555 0,-0.32803 -0.07818,-0.62064 -0.232422,-0.87304 -0.147882,-0.24956 -0.348759,-0.46958 -0.605469,-0.66211 -0.251399,-0.19198 -0.548338,-0.35933 -0.888672,-0.5 -0.33338,-0.14416 -0.688635,-0.27227 -1.066406,-0.38477 h -0.002 c -0.372545,-0.11666 -0.759066,-0.22555 -1.158203,-0.32422 l -1.154297,-0.28906 c -0.370842,-0.0983 -0.723903,-0.19955 -1.058594,-0.30664 -0.328077,-0.11084 -0.614698,-0.23325 -0.861328,-0.36523 h -0.002 c -0.240072,-0.13115 -0.428847,-0.28009 -0.570313,-0.44727 -0.134632,-0.16409 -0.201171,-0.35089 -0.201171,-0.57031 0,-0.26596 0.07108,-0.48942 0.214843,-0.67969 0.149101,-0.1917 0.362823,-0.35196 0.646485,-0.47852 a 0.06404328,0.06404328 0 0 0 0.002,0 c 0.28844,-0.13111 0.641951,-0.22896 1.058593,-0.29101 0.421558,-0.0621 0.901941,-0.0918 1.441407,-0.0918 0.445351,0 0.849396,0.0249 1.21289,0.0781 a 0.06404328,0.06404328 0 0 0 0.002,0 c 0.365197,0.049 0.690551,0.11218 0.978516,0.1875 0.293058,0.0755 0.552761,0.16093 0.777344,0.25781 a 0.06404328,0.06404328 0 0 0 0.002,0 c 0.22725,0.0936 0.426236,0.18311 0.599609,0.26758 a 0.06404328,0.06404328 0 0 0 0.0918,-0.0566 v -0.9668 a 0.06404328,0.06404328 0 0 0 -0.04883,-0.0625 c -0.290979,-0.0761 -0.57864,-0.14765 -0.865234,-0.21484 h -0.002 c -0.282434,-0.0672 -0.576664,-0.12643 -0.876954,-0.17579 h -0.002 c -0.296964,-0.0539 -0.606334,-0.0975 -0.929687,-0.1289 -0.320355,-0.0316 -0.661346,-0.0469 -1.021484,-0.0469 z m 21.767578,0 c -0.554114,0 -1.084354,0.0432 -1.589844,0.12891 -0.505868,0.0813 -0.980293,0.21022 -1.423828,0.38672 v -0.002 c -0.439118,0.17202 -0.840217,0.38923 -1.203125,0.65234 a 0.06404328,0.06404328 0 0 0 0,0.002 c -0.359386,0.26386 -0.667182,0.57756 -0.921875,0.94141 -0.255038,0.35978 -0.451171,0.76839 -0.591797,1.22656 -0.141017,0.45489 -0.212891,0.96127 -0.212891,1.51758 0,0.83622 0.151756,1.56458 0.457032,2.17969 0.304332,0.60866 0.725499,1.11183 1.261718,1.51172 a 0.06404328,0.06404328 0 0 0 0.002,0 c 0.535605,0.39489 1.165294,0.68902 1.888672,0.8789 0.722393,0.18963 1.50054,0.28516 2.333985,0.28516 0.828991,0 1.600441,-0.0955 2.318359,-0.28516 0.718919,-0.1899 1.347705,-0.48391 1.878906,-0.8789 0.531729,-0.39993 0.949659,-0.90323 1.253907,-1.51172 0.305275,-0.61511 0.457031,-1.34347 0.457031,-2.17969 0,-0.83623 -0.151676,-1.56116 -0.457031,-2.17188 -0.304227,-0.61299 -0.721852,-1.11804 -1.253907,-1.51367 -0.531276,-0.39958 -1.159913,-0.69484 -1.878906,-0.88476 -0.718024,-0.18967 -1.48947,-0.28321 -2.318359,-0.28321 z m -47.388672,0.16797 a 0.06404328,0.06404328 0 0 0 -0.06445,0.0645 v 9.23046 a 0.06404328,0.06404328 0 0 0 0.06445,0.0645 h 0.839844 a 0.06404328,0.06404328 0 0 0 0.06445,-0.0645 v -3.88671 h 3.689453 c 0.139261,0 0.275288,-0.001 0.40625,-0.006 0.119097,-0.004 0.234909,-0.0115 0.349609,-0.0195 l 2.957031,3.95118 a 0.06404328,0.06404328 0 0 0 0.05078,0.0254 h 1.054687 a 0.06404328,0.06404328 0 0 0 0.05078,-0.10352 l -3.091796,-3.99414 c 0.761315,-0.15818 1.331996,-0.43358 1.691406,-0.8418 0.374262,-0.42971 0.560547,-1.00214 0.560547,-1.70312 0,-0.45059 -0.07644,-0.84648 -0.228516,-1.1875 -0.152497,-0.34197 -0.396128,-0.62833 -0.726563,-0.85352 h -0.002 c -0.326829,-0.22981 -0.742954,-0.3972 -1.25,-0.50586 -0.507838,-0.11335 -1.115723,-0.16992 -1.822265,-0.16992 z m 11.460937,0 a 0.06404328,0.06404328 0 0 0 -0.06445,0.0645 v 9.23046 a 0.06404328,0.06404328 0 0 0 0.06445,0.0645 H 61.375 a 0.06404328,0.06404328 0 0 0 0.06445,-0.0645 v -0.78711 a 0.06404328,0.06404328 0 0 0 -0.06445,-0.0645 h -6.814453 v -3.57226 h 6.371094 a 0.06404328,0.06404328 0 0 0 0.06445,-0.0645 v -0.77929 a 0.06404328,0.06404328 0 0 0 -0.06445,-0.0645 h -6.371094 v -3.04882 h 6.712891 a 0.06404328,0.06404328 0 0 0 0.06445,-0.0645 v -0.78515 a 0.06404328,0.06404328 0 0 0 -0.06445,-0.0645 z m 19.925781,0 a 0.06404328,0.06404328 0 0 0 -0.06445,0.0645 v 0.76562 a 0.06404328,0.06404328 0 0 0 0.06445,0.0645 h 4.132813 v 8.40039 a 0.06404328,0.06404328 0 0 0 0.06445,0.0645 h 0.833984 a 0.06404328,0.06404328 0 0 0 0.06445,-0.0645 v -8.40039 h 4.132812 a 0.06404328,0.06404328 0 0 0 0.06445,-0.0645 v -0.76562 a 0.06404328,0.06404328 0 0 0 -0.06445,-0.0645 z m 24.304688,0 a 0.06404328,0.06404328 0 0 0 -0.06445,0.0645 v 9.23046 a 0.06404328,0.06404328 0 0 0 0.06445,0.0645 h 0.839844 a 0.06404328,0.06404328 0 0 0 0.06445,-0.0645 v -3.88671 h 3.691403 c 0.13927,0 0.27336,-0.001 0.4043,-0.006 0.1191,-0.004 0.23491,-0.0115 0.34961,-0.0195 l 2.95703,3.95118 a 0.06404328,0.06404328 0 0 0 0.0508,0.0254 h 1.05469 a 0.06404328,0.06404328 0 0 0 0.0508,-0.10352 l -3.08984,-3.99414 c 0.76118,-0.15819 1.33011,-0.43366 1.68945,-0.8418 0.37427,-0.42971 0.56055,-1.00214 0.56055,-1.70312 0,-0.45059 -0.0765,-0.84648 -0.22852,-1.1875 -0.1525,-0.34197 -0.39613,-0.62833 -0.72656,-0.85352 h -0.002 c -0.32683,-0.22981 -0.74295,-0.3972 -1.25,-0.50586 -0.5078,-0.11334 -1.11377,-0.16992 -1.82032,-0.16992 z m 11.46094,0 a 0.06404328,0.06404328 0 0 0 -0.0645,0.0645 v 9.23046 a 0.06404328,0.06404328 0 0 0 0.0645,0.0645 h 7.79297 a 0.06404328,0.06404328 0 0 0 0.0644,-0.0645 v -0.78711 a 0.06404328,0.06404328 0 0 0 -0.0644,-0.0645 h -6.81446 v -3.57226 h 6.3711 a 0.06404328,0.06404328 0 0 0 0.0644,-0.0645 v -0.77929 a 0.06404328,0.06404328 0 0 0 -0.0644,-0.0645 h -6.3711 v -3.04882 h 6.71289 a 0.06404328,0.06404328 0 0 0 0.0645,-0.0645 v -0.78515 a 0.06404328,0.06404328 0 0 0 -0.0645,-0.0645 z m -19.763674,0.70508 c 0.814878,0 1.527839,0.0886 2.138672,0.26563 a 0.06404328,0.06404328 0 0 0 0,0.002 c 0.615548,0.1727 1.126626,0.42737 1.535156,0.76562 0.408594,0.3339 0.715175,0.74767 0.921875,1.24024 0.211009,0.49235 0.316406,1.06015 0.316406,1.70703 0,0.64687 -0.105421,1.21669 -0.316406,1.70898 -0.206716,0.49261 -0.513063,0.90761 -0.921875,1.2461 -0.408669,0.33396 -0.919341,0.58841 -1.535156,0.76562 -0.610907,0.17265 -1.323621,0.25977 -2.138672,0.25977 -0.815053,0 -1.532304,-0.087 -2.152344,-0.25977 -0.615874,-0.17722 -1.129752,-0.43154 -1.542969,-0.76562 -0.413326,-0.33858 -0.72442,-0.75346 -0.935547,-1.2461 -0.210985,-0.49229 -0.316406,-1.06211 -0.316406,-1.70898 0,-0.63782 0.105341,-1.20088 0.316406,-1.69336 0.211157,-0.49709 0.522597,-0.91417 0.935547,-1.24805 0.413141,-0.33842 0.927179,-0.59428 1.542969,-0.77148 0.619967,-0.17714 1.337464,-0.26758 2.152344,-0.26758 z m -46.484375,0.20899 h 2.796875 c 0.737529,0 1.358205,0.0252 1.861328,0.0742 0.50608,0.0444 0.91242,0.13323 1.216797,0.26368 0.303665,0.13014 0.515301,0.31022 0.646484,0.54296 a 0.06404328,0.06404328 0 0 0 0.002,0 c 0.131439,0.22897 0.199219,0.53536 0.199219,0.92188 0,0.39094 -0.06965,0.69919 -0.205078,0.92773 -0.130757,0.22355 -0.347736,0.40285 -0.65625,0.53321 -0.30907,0.12597 -0.717135,0.21151 -1.222657,0.25586 -0.508147,0.0401 -1.131338,0.0605 -1.86914,0.0605 h -2.769531 z m 55.691406,0 h 2.796873 c 0.73753,0 1.35821,0.0252 1.86133,0.0742 0.50608,0.0444 0.91241,0.13323 1.2168,0.26368 0.30375,0.13018 0.51737,0.31045 0.64843,0.54296 a 0.06404328,0.06404328 0 0 0 0.002,0 c 0.1313,0.22874 0.19726,0.53515 0.19726,0.92188 0,0.39094 -0.0696,0.69919 -0.20507,0.92773 -0.13075,0.22355 -0.34774,0.40285 -0.65626,0.53321 -0.30907,0.12597 -0.71713,0.21151 -1.22265,0.25586 -0.50815,0.0401 -1.13134,0.0605 -1.86914,0.0605 h -2.769533 z"
       transform="translate(0,0.45455454)" />
    <path
       id="text1947-7-3"
       style="font-style:normal;font-weight:normal;font-size:13.7583px;line-height:1.25;font-family:sans-serif;fill:#ffe013;fill-opacity:1;stroke:none;stroke-width:0.343958"
       sodipodi:type="inkscape:offset"
       inkscape:radius="0.013100488"
       inkscape:original="M 128.8418 171.91016 C 128.28802 171.91016 127.75904 171.95142 127.25391 172.03711 A 0.051978585 0.051978585 0 0 1 127.25 172.03516 C 126.74609 172.11642 126.27407 172.24792 125.83203 172.42383 C 125.39328 172.59571 124.99327 172.81147 124.63086 173.07422 C 124.272 173.33769 123.96522 173.65235 123.71094 174.01562 C 123.45679 174.37447 123.25551 174.78315 123.11523 175.24023 C 122.9744 175.69452 122.9082 176.20014 122.9082 176.75586 C 122.9082 177.59132 123.05851 178.31754 123.36328 178.93164 C 123.66675 179.53857 124.08474 180.04234 124.61914 180.44141 C 124.61914 180.44141 124.62109 180.44336 124.62109 180.44336 A 0.051978585 0.051978585 0 0 1 124.62305 180.44336 C 125.15801 180.83778 125.78901 181.12865 126.51172 181.31836 C 127.23354 181.50784 128.00883 181.60352 128.8418 181.60352 C 129.6703 181.60352 130.44275 181.50786 131.16016 181.31836 C 131.87847 181.12862 132.50477 180.83774 133.03516 180.44336 C 133.56608 180.04404 133.98325 179.53934 134.28711 178.93164 C 134.59184 178.31763 134.74414 177.59141 134.74414 176.75586 C 134.74414 175.9203 134.59192 175.1975 134.28711 174.58789 C 133.98327 173.97568 133.56638 173.46923 133.03516 173.07422 C 132.5047 172.67525 131.87855 172.38312 131.16016 172.19336 C 130.44266 172.00383 129.6702 171.91016 128.8418 171.91016 z M 119.6582 172.07812 C 119.62807 172.07826 119.60169 172.10463 119.60156 172.13477 L 119.60156 181.36523 C 119.60169 181.39537 119.62807 181.42174 119.6582 181.42188 L 120.49805 181.42188 C 120.52818 181.42174 120.55456 181.39537 120.55469 181.36523 L 120.55469 172.13477 C 120.55456 172.10463 120.52818 172.07826 120.49805 172.07812 L 119.6582 172.07812 z M 128.8418 172.76758 C 129.65222 172.76758 130.35973 172.85807 130.96875 173.0332 A 0.051978585 0.051978585 0 0 1 130.98242 173.03516 C 131.59862 173.20804 132.11025 173.4658 132.51953 173.80469 A 0.051978585 0.051978585 0 0 1 132.52734 173.8125 C 132.9324 174.14576 133.23976 174.55704 133.44531 175.04688 L 133.44336 175.04688 C 133.65472 175.54006 133.76367 176.10825 133.76367 176.75586 C 133.76367 177.40346 133.6547 177.97366 133.44336 178.4668 L 133.44531 178.4668 C 133.23847 178.95971 132.92852 179.37397 132.51953 179.71289 A 0.051978585 0.051978585 0 0 1 132.51953 179.71484 C 132.11015 180.04939 131.59697 180.30697 130.98047 180.48438 C 130.36928 180.65689 129.65654 180.74414 128.8418 180.74414 C 128.03191 180.74414 127.31891 180.65686 126.70117 180.48633 A 0.051978585 0.051978585 0 0 1 126.6875 180.48438 C 126.07238 180.30715 125.55787 180.0487 125.14453 179.71484 C 124.73049 179.37567 124.41848 178.96017 124.20703 178.4668 C 123.99569 177.97366 123.88672 177.40346 123.88672 176.75586 C 123.88672 176.1173 123.99562 175.55385 124.20703 175.06055 C 124.41847 174.56279 124.7288 174.1451 125.14258 173.81055 A 0.051978585 0.051978585 0 0 1 125.14648 173.80859 C 125.55961 173.47073 126.07289 173.21224 126.6875 173.03516 C 127.30815 172.85782 128.02644 172.76758 128.8418 172.76758 z "
       d="m 128.8418,171.89648 c -0.55443,0 -1.08391,0.0411 -1.58985,0.12696 a 0.0131018,0.0131018 0 0 0 -0.006,0.006 l 0.002,-0.008 c -0.50484,0.0814 -0.97699,0.21436 -1.41993,0.39063 -0.43969,0.17225 -0.84171,0.3889 -1.20507,0.65234 -0.36,0.26431 -0.6668,0.57895 -0.92188,0.94336 -0.25497,0.36002 -0.45699,0.77017 -0.59765,1.22852 -0.1413,0.4558 -0.20899,0.96277 -0.20899,1.51953 0,0.83703 0.1512,1.56539 0.45703,2.18164 0.30409,0.60817 0.7224,1.11355 1.25782,1.51367 h 0.002 l 0.002,-0.004 a 0.0131018,0.0131018 0 0 0 0.002,0.006 c 0.53645,0.39552 1.1685,0.68689 1.89258,0.87696 0.723,0.18979 1.50001,0.28711 2.33399,0.28711 0.82951,0 1.60366,-0.0973 2.32226,-0.28711 0.71969,-0.19011 1.34703,-0.48147 1.87891,-0.87696 0.53252,-0.40052 0.95115,-0.90623 1.25586,-1.51562 0.30578,-0.61614 0.45898,-1.3445 0.45898,-2.18164 0,-0.83715 -0.1531,-1.56207 -0.45898,-2.17383 -0.30468,-0.61391 -0.72297,-1.12133 -1.25586,-1.51758 -0.53196,-0.4001 -1.15913,-0.69268 -1.87891,-0.88281 -0.71871,-0.18985 -1.49288,-0.28516 -2.32226,-0.28516 z m -1.59766,0.14649 a 0.0131018,0.0131018 0 0 0 0.002,0.004 c 0,0 -0.002,0 -0.002,0 z m -7.58594,0.0215 c -0.0377,1.8e-4 -0.0701,0.0326 -0.0703,0.0703 v 9.23046 c 1.6e-4,0.0378 0.0326,0.0701 0.0703,0.0703 h 0.83985 c 0.0377,-1.8e-4 0.0701,-0.0326 0.0703,-0.0703 v -9.23046 c -1.6e-4,-0.0378 -0.0326,-0.0701 -0.0703,-0.0703 z m 9.1836,0.7168 c 0.80944,0 1.51546,0.089 2.12304,0.26367 l 0.004,-0.0254 c -0.0195,-1.8e-4 0.0233,0.001 0.004,0 -0.0194,-0.001 0.0232,0.005 0.004,0.002 -0.0193,-0.003 0.0249,0.004 0.006,0 -0.0191,-0.004 0.0227,0.007 0.004,0.002 l -0.008,0.0234 c 0.61475,0.17247 1.12554,0.43002 1.5332,0.76757 l 0.0156,-0.0195 c -0.0153,-0.0123 0.0185,0.0151 0.004,0.002 0,0 0.002,0.002 0.002,0.002 0,0 0.002,0.002 0.002,0.002 -0.0131,-0.0146 0.0143,0.0192 0.002,0.004 l -0.0176,0.0176 c 0.40237,0.33104 0.70736,0.74038 0.91211,1.22656 a 0.0131018,0.0131018 0 0 0 0,0.004 c 0.21057,0.49133 0.31836,1.05699 0.31836,1.70313 0,0.64613 -0.10782,1.2138 -0.31836,1.70508 a 0.0131018,0.0131018 0 0 0 0,0.004 c -0.20585,0.4888 -0.51219,0.90174 -0.91797,1.23828 a 0.0131018,0.0131018 0 0 0 -0.002,0.002 c -0.40778,0.33324 -0.92004,0.59056 -1.53516,0.76758 -0.60974,0.1721 -1.32096,0.25781 -2.13476,0.25781 -0.80895,0 -1.52037,-0.0857 -2.13672,-0.25586 l -0.004,0.0254 c 0.0195,1.7e-4 -0.0233,-0.001 -0.004,0 0.0194,0.001 -0.0232,-0.005 -0.004,-0.002 0.0193,0.003 -0.0249,-0.004 -0.006,0 0.0191,0.004 -0.0227,-0.007 -0.004,-0.002 a 0.0131018,0.0131018 0 0 0 0.008,-0.0234 c -0.61374,-0.17683 -1.12729,-0.43498 -1.53907,-0.76758 -0.41247,-0.33789 -0.72293,-0.75261 -0.93359,-1.24414 -0.21054,-0.49128 -0.31836,-1.05895 -0.31836,-1.70508 0,-0.63707 0.10773,-1.19798 0.31836,-1.68945 0.21067,-0.49595 0.51952,-0.91289 0.93164,-1.2461 a 0.0131018,0.0131018 0 0 0 0.002,-0.004 l 0.002,0.002 c 0.41155,-0.33657 0.92389,-0.59481 1.53711,-0.77148 0.61921,-0.17693 1.33599,-0.26563 2.15039,-0.26563 z m -3.70313,1.01563 c 6.5e-4,0 0.003,0.001 0.004,0.002 a 0.0131018,0.0131018 0 0 0 -0.004,0 c 0,0 0,-0.002 0,-0.002 z"
       transform="translate(0.03907,0.45455454)" />
  </g>
</svg>
