<?xml version="1.0" standalone="no"?>
<!DOCTYPE svg PUBLIC "-//W3C//DTD SVG 20010904//EN"
 "http://www.w3.org/TR/2001/REC-SVG-20010904/DTD/svg10.dtd">
<svg version="1.0" xmlns="http://www.w3.org/2000/svg"
 width="1280.000000pt" height="1280.000000pt" viewBox="0 0 1280.000000 1280.000000"
 preserveAspectRatio="xMidYMid meet">
<metadata>
Created by potrace 1.14, written by Peter Selinger 2001-2017
</metadata>
<g transform="translate(0.000000,1280.000000) scale(0.100000,-0.100000)"
fill="#000000" stroke="none">
<path d="M2014 9848 c3 -13 394 -1572 868 -3465 l863 -3443 595 0 595 0 694
2833 c382 1557 710 2897 729 2977 42 182 43 182 53 145 5 -16 328 -1346 719
-2955 391 -1609 715 -2942 721 -2962 l10 -38 594 0 c327 0 595 1 595 3 0 4
1730 6892 1736 6910 5 16 -20 17 -477 15 l-483 -3 -718 -2895 c-395 -1592
-721 -2902 -724 -2910 -6 -14 -166 623 -1044 4153 l-413 1657 -528 0 c-290 0
-530 -3 -532 -7 -3 -5 -328 -1311 -723 -2903 -394 -1592 -720 -2898 -723
-2902 -4 -4 -333 1302 -731 2902 l-724 2910 -479 0 -479 0 6 -22z"/>
</g>
</svg>
