<svg xmlns="http://www.w3.org/2000/svg" height="48" viewBox="0 -960 960 960" width="48"><path d="M479.256-353q-8.847 0-16.951-3.955Q454.2-360.909 448-367L288-526q-12-13-12-32.5t14-33q13-12.5 31.5-12.5t32.5 13l80 82v-311q0-20.075 13.56-33.537Q461.119-867 479.86-867q20.14 0 32.64 13.463Q525-840.075 525-820v311l82-82q13-13 32-13t32 13q13 13 13 32.5T671-526L512-367q-6.195 6-15.261 10-9.066 4-17.483 4ZM205-116q-35.775 0-63.388-27.034Q114-170.069 114-208.5V-350q0-18.8 13.56-32.4 13.559-13.6 32.3-13.6 20.14 0 32.64 13.6t12.5 32.297V-208h549v-142.103q0-18.697 12.86-32.297 12.859-13.6 32.5-13.6Q819-396 832-382.4t13 32.297V-208q0 38.225-28.138 65.112Q788.725-116 754-116H205Z"/></svg>