<svg width="12" height="14" viewBox="0 0 12 14" fill="none" xmlns="http://www.w3.org/2000/svg">
<path fill-rule="evenodd" clip-rule="evenodd" d="M5.48049 4.5e-05C5.32896 0.004045 5.18744 0.0766711 5.09571 0.197341L0.146486 5.14653C-0.168304 5.46153 0.0546973 5.99987 0.500017 6.00004H5.50002C5.77615 6.00001 5.99999 5.77618 6.00002 5.50004V1.00004H11V13H1.00002V7.00004H1.73496e-05V13.5C4.73495e-05 13.7762 0.223887 14 0.500017 14H11.5C11.7761 14 12 13.7762 12 13.5V0.500045C12 0.223915 11.7761 7.5e-05 11.5 4.5e-05H5.50002C5.49502 -1.5e-05 5.49101 -1.5e-05 5.48631 4.5e-05C5.48564 6.5e-05 5.48532 2.5e-05 5.48432 4.5e-05C5.48332 8.5e-05 5.48132 -5e-06 5.48032 4.5e-05H5.48049Z" fill="black"/>
</svg>
