<?xml version="1.0" encoding="UTF-8" standalone="no"?>
<!-- Created with Inkscape (http://www.inkscape.org/) -->

<svg
   width="89.299973mm"
   height="89.299973mm"
   viewBox="0 0 89.299973 89.299973"
   version="1.1"
   id="svg843"
   sodipodi:docname="Icon.svg"
   inkscape:version="1.1.2 (0a00cf5339, 2022-02-04)"
   xmlns:inkscape="http://www.inkscape.org/namespaces/inkscape"
   xmlns:sodipodi="http://sodipodi.sourceforge.net/DTD/sodipodi-0.dtd"
   xmlns="http://www.w3.org/2000/svg"
   xmlns:svg="http://www.w3.org/2000/svg"
   xmlns:rdf="http://www.w3.org/1999/02/22-rdf-syntax-ns#"
   xmlns:cc="http://creativecommons.org/ns#"
   xmlns:dc="http://purl.org/dc/elements/1.1/">
  <defs
     id="defs837" />
  <sodipodi:namedview
     id="base"
     pagecolor="#ffffff"
     bordercolor="#666666"
     borderopacity="1.0"
     inkscape:pageopacity="0.0"
     inkscape:pageshadow="2"
     inkscape:zoom="1.4"
     inkscape:cx="162.14286"
     inkscape:cy="172.5"
     inkscape:document-units="mm"
     inkscape:current-layer="layer1"
     showgrid="false"
     inkscape:window-width="1920"
     inkscape:window-height="1016"
     inkscape:window-x="0"
     inkscape:window-y="0"
     inkscape:window-maximized="1"
     fit-margin-top="0"
     fit-margin-left="0"
     fit-margin-right="0"
     fit-margin-bottom="0"
     inkscape:pagecheckerboard="0" />
  <metadata
     id="metadata840">
    <rdf:RDF>
      <cc:Work
         rdf:about="">
        <dc:format>image/svg+xml</dc:format>
        <dc:type
           rdf:resource="http://purl.org/dc/dcmitype/StillImage" />
      </cc:Work>
    </rdf:RDF>
  </metadata>
  <g
     inkscape:label="Layer 1"
     inkscape:groupmode="layer"
     id="layer1"
     transform="translate(-28.849402,-73.012595)">
    <path
       style="fill:#ffb2d7;fill-opacity:1;stroke:none;stroke-width:2.64566922;stroke-miterlimit:4;stroke-dasharray:none;stroke-opacity:1"
       d="M 277.79297,275.95312 A 168.7559,168.75591 0 0 0 109.03711,444.70898 168.7559,168.75591 0 0 0 277.79297,613.46484 168.7559,168.75591 0 0 0 446.54883,444.70898 168.7559,168.75591 0 0 0 277.79297,275.95312 Z m -95.25195,80.31641 c 14.01755,0.23205 27.85546,9.17578 27.85546,9.17578 62.37693,-18.43528 106.5293,2.5 106.5293,2.5 33.29552,12.68829 67.5868,35.65999 70.01367,52.37696 2.389,16.4561 -41.13602,41.57102 -52.20898,52.46679 -22.32144,21.96431 4.41547,47.30049 17.45117,63.19336 0.46686,0.58179 6.40995,12.35442 8.83008,16.92578 a 19.642855,2.767857 0 0 1 12.64258,2.58203 19.642855,2.767857 0 0 1 -19.64258,2.76758 19.642855,2.767857 0 0 1 -19.64258,-2.76758 19.642855,2.767857 0 0 1 12.05859,-2.55078 c 3.56933,-9.97793 -16.70703,-27.63867 -16.70703,-27.63867 0,0 -26.76939,-30.05105 -8.71289,-53.53711 14.01328,-18.22707 51.60632,-30.55057 48.95899,-50.63672 -0.60678,-4.60354 -30.02788,-30.67648 -43.78321,-9.59375 0,0 -14.00017,25.69208 -37.19531,34.57227 l -3.08398,8.73828 c 0,0 -6.31394,50.75945 -6.56641,66.92187 -0.25253,16.16247 -0.50391,27.02149 -0.50391,27.02149 L 279,550.16406 c 5.51308,-1.047 13.02347,-3.77923 32.76953,-0.33594 13.85307,5.89656 -2.36523,2.11133 -2.36523,2.11133 0,0 -28.51277,-2.3569 -29.94336,2.07617 l 0.13086,1.08594 c 0,0 30.68281,1.13537 32.70312,5.9336 0,0 -24.36975,-3.408 -34.21875,-2.65039 -9.84899,0.75764 -10.98456,-5.6829 -14.26758,-3.03125 0,0 -15.02719,2.77716 -26.89648,4.54492 -10.80585,1.60936 14.14437,-5.25474 32.14648,-8.5918 l 3.20899,-5.04492 c 0,0 6.06054,-36.87005 1.00976,-72.73047 -1.78785,-12.69385 -3.47485,-20.22908 -4.91601,-24.75 -16.92714,-1.97594 -36.78202,-14.41334 -58.48828,-46.94336 l -7.05274,-10.63477 c -3.03046,-5.05076 -25.00195,27.02344 -25.00195,27.02344 -6.67816,-16.12531 3.85809,-25.07899 12.19141,-29.42383 -20.0189,6.66059 -56.89063,12.75586 -56.89063,12.75586 11.86929,-17.42509 60.35742,-22.47656 60.35742,-22.47656 -1.01015,-4.54569 -48.23633,-2.52539 -48.23633,-2.52539 12.62691,-12.37437 49.49805,-7.82812 49.49805,-7.82812 -1.76777,-6.06092 -21.46484,-11.11133 -21.46484,-11.11133 2.56484,-0.8681 5.23301,-1.2752 7.91211,-1.3418 0.45209,-0.0113 0.90328,-0.0134 1.35547,-0.006 z"
       transform="scale(0.26458333)"
       id="path1412"
       inkscape:connector-curvature="0" />
  </g>
</svg>
